HIERARCHY
ROOT root
{
	OFFSET	0	13.1	24.9
	CHANNELS 6  Xposition Yposition Zposition Xrotation Yrotation Zrotation
	JOINT spine_1
	{
		OFFSET	0	9.99999	0
		CHANNELS 3  Xrotation Yrotation Zrotation
		JOINT spine_2
		{
			OFFSET	0	112	-10
			CHANNELS 3  Xrotation Yrotation Zrotation
			JOINT spine_3
			{
				OFFSET	0	206.5	19.3
				CHANNELS 3  Xrotation Yrotation Zrotation
				JOINT spine_4
				{
					OFFSET	0	110.4	14.6
					CHANNELS 3  Xrotation Yrotation Zrotation
					JOINT neck_1
					{
						OFFSET	0	71.8	-50.3
						CHANNELS 3  Xrotation Yrotation Zrotation
						JOINT neck_2
						{
							OFFSET	0	86.2	-25.8
							CHANNELS 3  Xrotation Yrotation Zrotation
							JOINT head_ee
							{
								OFFSET	0	179.8	-8.7
								CHANNELS 3  Xrotation Yrotation Zrotation
								End Site
								{
									OFFSET	1	0	0
								}
							}
						}
					}
					JOINT left_clavicle
					{
						OFFSET	-43.2	22.4	-70.8
						CHANNELS 3  Xrotation Yrotation Zrotation
						JOINT left_shoulder
						{
							OFFSET	-93.9	-5.79999	48.7
							CHANNELS 3  Xrotation Yrotation Zrotation
							JOINT left_elbow
							{
								OFFSET	-291.4	-30.8	15.2
								CHANNELS 3  Xrotation Yrotation Zrotation
								JOINT left_lowarm_twist
								{
									OFFSET	-110.7	-3.89999	13.6
									CHANNELS 3  Xrotation Yrotation Zrotation
									JOINT left_hand
									{
										OFFSET	-110.7	-3.89999	13.6
										CHANNELS 3  Xrotation Yrotation Zrotation
										JOINT left_ee
										{
											OFFSET	-80.8	-5.10001	12.1
											CHANNELS 3  Xrotation Yrotation Zrotation
											End Site
											{
												OFFSET	1	0	0
											}
										}
									}
								}
							}
						}
					}
					JOINT right_clavicle
					{
						OFFSET	43.2	22.4	-70.8
						CHANNELS 3  Xrotation Yrotation Zrotation
						JOINT right_shoulder
						{
							OFFSET	93.9	-5.79999	48.7
							CHANNELS 3  Xrotation Yrotation Zrotation
							JOINT right_elbow
							{
								OFFSET	291.4	-30.8	15.2
								CHANNELS 3  Xrotation Yrotation Zrotation
								JOINT right_lowarm_twist
								{
									OFFSET	110.7	-3.89999	13.6
									CHANNELS 3  Xrotation Yrotation Zrotation
									JOINT right_hand
									{
										OFFSET	110.7	-3.89999	13.6
										CHANNELS 3  Xrotation Yrotation Zrotation
										JOINT right_ee
										{
											OFFSET	80.8	-5.10001	12.1
											CHANNELS 3  Xrotation Yrotation Zrotation
											End Site
											{
												OFFSET	1	0	0
											}
										}
									}
								}
							}
						}
					}
				}
			}
		}
	}
	JOINT left_hip
	{
		OFFSET	-82.8	-127.5	0.300001
		CHANNELS 3  Xrotation Yrotation Zrotation
		JOINT left_knee
		{
			OFFSET	-28.2	-396.7	2.2
			CHANNELS 3  Xrotation Yrotation Zrotation
			JOINT left_ankle
			{
				OFFSET	-11.7	-411.3	35.4
				CHANNELS 3  Xrotation Yrotation Zrotation
				JOINT left_toes
				{
					OFFSET	0	-60	-88.6
					CHANNELS 3  Xrotation Yrotation Zrotation
					JOINT left_foot_ee
					{
						OFFSET	-22.5	-16.5	-42.2
						CHANNELS 3  Xrotation Yrotation Zrotation
						End Site
						{
							OFFSET	1	0	0
						}
					}
				}
			}
		}
	}
	JOINT right_hip
	{
		OFFSET	82.8	-127.5	0.300001
		CHANNELS 3  Xrotation Yrotation Zrotation
		JOINT right_knee
		{
			OFFSET	28.2	-396.7	2.2
			CHANNELS 3  Xrotation Yrotation Zrotation
			JOINT right_ankle
			{
				OFFSET	11.7	-411.3	35.4
				CHANNELS 3  Xrotation Yrotation Zrotation
				JOINT right_toes
				{
					OFFSET	0	-60	-88.6
					CHANNELS 3  Xrotation Yrotation Zrotation
					JOINT right_foot_ee
					{
						OFFSET	22.5	-16.5	-42.2
						CHANNELS 3  Xrotation Yrotation Zrotation
						End Site
						{
							OFFSET	1	0	0
						}
					}
				}
			}
		}
	}
}
MOTION
Frames: 12
Frame Time: 0.02
2680.01 670.529 -527.806 5.70845 -89.1896 8.06864 0.492211 -0.456119 -1.16141 0.49288 -0.381297 -1.18808 0.501209 -0.133982 -1.24055 0.499211 -0.328207 -1.20383 -7.42329 0.365388 -0.549463 -7.42234 1.07349 -0.471055 -0.0 0.0 -0.0 9.2152 9.2989 17.464 13.9345 -23.3523 69.1992 2.16314 -46.9723 0.940027 84.607 -4.37953 -8.84785 -1.60148 14.0282 -4.24477 -0.0 0.0 -0.0 9.85043 -20.3567 -17.1591 -13.6317 -12.3855 -53.5511 0.292261 8.23808 -0.0210471 26.4756 -0.16177 3.34823 -2.08616 -28.7425 0.0417916 0.0 0.0 0.0 -14.8399 0.174935 -3.00501 -7.62127 0.23795 1.14457 40.3258 20.715 -5.07584 -31.4024 0.0 0.0 -0.0 0.0 -0.0 25.7594 -12.0595 0.452604 5.67087 0.274707 0.826276 15.6651 -5.34017 2.18106 -20.1192 0.0 0.0 0.0 0.0 0.0 
2705.26 669.636 -520.476 22.5421 -89.1851 24.4306 0.673493 -0.42293 -0.923998 0.673895 -0.363279 -0.949035 0.680172 -0.167646 -1.00226 0.678916 -0.323823 -0.963211 -7.27537 0.571055 0.229066 -7.27528 0.897517 0.346285 -0.0 0.0 -0.0 8.93993 10.7082 16.8317 11.3451 -22.649 68.3183 2.17622 -47.1445 0.949603 84.6542 -4.38517 -8.85006 -1.60822 15.6659 -3.5211 -0.0 0.0 -0.0 10.0207 -20.342 -17.4331 -13.6818 -12.3667 -54.4116 0.28861 8.13656 -0.0205273 26.8436 -0.153076 3.39443 -1.96846 -28.8689 -0.650925 0.0 0.0 0.0 -15.8878 0.93445 -3.29092 -9.49193 0.272921 1.42949 39.1146 20.118 -4.94854 -31.4224 0.0 0.0 -0.0 0.0 -0.0 25.9877 -12.7282 -0.191145 0.722075 0.0304066 0.106634 21.749 -5.40021 2.94624 -16.8851 0.0 0.0 0.0 0.0 0.0 
2731.41 669.33 -515.077 59.6226 -89.0144 61.1538 0.759418 -0.288639 -0.750384 0.759699 -0.240307 -0.767229 0.763066 -0.0843547 -0.799543 0.762235 -0.209565 -0.776189 -7.44859 0.922408 0.936886 -7.44638 1.0464 1.12562 -0.0 0.0 -0.0 8.68855 11.4249 16.3135 8.23258 -21.9612 67.6642 2.12225 -46.4269 0.910273 84.8241 -4.40547 -8.85799 -1.70073 17.9368 -3.02041 -0.0 0.0 -0.0 10.1485 -20.3333 -17.6391 -13.7341 -12.386 -55.0989 0.287823 8.11466 -0.020416 27.1454 -0.145725 3.43228 -1.84388 -28.6605 -1.22083 0.0 0.0 0.0 -16.5623 1.47294 -3.6444 -10.812 0.291991 1.63113 37.6189 20.1023 -4.80472 -31.535 0.0 0.0 -0.0 0.0 -0.0 26.1438 -12.8519 0.711487 -5.29742 -0.181577 -0.792432 25.8561 -6.03679 3.42944 -14.7499 0.0 0.0 0.0 0.0 0.0 
2757.42 667.098 -509.186 77.5871 -88.8017 78.7558 0.849512 -0.160304 -0.575724 0.849688 -0.123345 -0.584757 0.851017 -0.0065669 -0.597588 0.850533 -0.100861 -0.589051 -7.40283 1.47764 1.21372 -7.39932 1.88036 1.51671 -0.0 0.0 -0.0 8.24958 12.2734 15.4603 5.74373 -21.993 67.1122 2.07004 -45.7141 0.872671 84.9389 -4.41921 -8.86331 -1.85628 20.7118 -2.63068 -0.0 0.0 -0.0 10.2557 -20.1339 -17.8465 -13.4925 -12.2753 -55.4112 0.288527 8.13426 -0.0205155 27.4135 -0.139027 3.46588 -1.74524 -28.5505 -1.70028 0.0 0.0 0.0 -17.1769 1.91389 -3.14092 -13.2167 0.314772 1.99937 36.3229 20.1172 -4.67706 -31.6748 0.0 0.0 -0.0 0.0 -0.0 25.9042 -13.2416 1.12014 -9.69505 -0.276158 -1.46049 29.2894 -6.65533 3.81173 -13.2858 0.0 0.0 0.0 0.0 0.0 
2784.43 665.964 -506.903 90.0001 -88.5983 90.0001 1.06806 -0.02119 -0.276071 1.06811 -0.00357995 -0.27686 1.06813 0.0496205 -0.272401 1.06803 0.00597732 -0.276819 -6.38384 1.90661 -0.374807 -6.38198 3.80458 -0.00871099 -0.0 0.0 -0.0 7.64935 12.4312 14.3952 2.91746 -21.0693 67.483 1.9119 -43.4391 0.761651 84.565 -4.37452 -8.84588 -2.24536 25.8287 -2.35585 -0.0 0.0 -0.0 10.5067 -19.9805 -18.2802 -12.8757 -11.969 -55.9312 0.294619 8.30363 -0.0213864 28.1207 -0.120606 3.55433 -1.78711 -28.7101 -1.54926 0.0 0.0 0.0 -17.4123 2.39093 -2.49497 -15.9214 0.321908 2.41426 35.7852 23.8293 -4.71184 -31.624 0.0 0.0 -0.0 0.0 -0.0 24.9091 -13.541 1.09867 -12.958 -0.313064 -1.95972 28.845 -7.44116 3.76413 -12.2311 0.0 0.0 0.0 0.0 0.0 
2808.68 668.254 -499.758 90.0001 -88.5277 90.0001 0.938722 0.017938 -0.248447 0.938756 0.0337109 -0.246802 0.938615 0.0809825 -0.235562 0.93854 0.0427636 -0.245395 -5.91637 1.98432 1.54451 -5.91007 2.52493 1.92904 -0.0 0.0 -0.0 7.70729 12.4589 14.4945 0.149253 -19.7377 66.5558 1.68083 -39.7787 0.608137 84.1408 -4.32394 -8.82574 -2.11505 24.0356 -2.51391 -0.0 0.0 -0.0 10.6778 -19.3555 -18.6754 -11.8995 -11.5261 -56.6439 0.320024 9.00834 -0.0252099 28.6178 -0.107003 3.61637 -1.43595 -28.8467 -3.49869 0.0 0.0 0.0 -17.6918 1.01841 -3.7349 -17.4978 0.317032 2.65606 32.6071 22.4255 -4.33947 -32.2672 0.0 0.0 -0.0 0.0 -0.0 24.3433 -13.6941 0.846714 -15.1097 -0.321824 -2.28971 29.7595 -8.76369 3.86625 -11.0834 0.0 0.0 0.0 0.0 0.0 
2830.89 669.729 -496.417 90.0001 -87.8026 90.0001 0.88375 0.0904447 -0.123753 0.883753 0.0981361 -0.117747 0.883547 0.11922 -0.0963404 0.883549 0.102509 -0.11396 -5.47263 2.23862 0.45054 -5.47021 3.79008 0.859336 -0.0 0.0 -0.0 7.82165 12.6977 14.677 -2.3045 -19.1007 66.0728 1.41829 -35.089 0.448416 84.1153 -4.3209 -8.82452 -2.47152 26.2722 -3.38882 -0.0 0.0 -0.0 10.9441 -18.9634 -19.1906 -11.214 -11.0786 -57.401 0.339266 9.54031 -0.028311 28.86 -0.100181 3.64656 -1.39765 -28.7263 -3.65163 0.0 0.0 0.0 -16.6889 -0.309106 -4.78402 -21.7829 0.270195 3.31173 29.8616 25.6079 -4.10632 -33.089 0.0 0.0 -0.0 0.0 -0.0 21.9489 -13.8014 0.374433 -16.2342 -0.321469 -2.46225 29.3729 -9.76956 3.82801 -10.5602 0.0 0.0 0.0 0.0 0.0 
2856.35 675.474 -490.78 90.0001 -87.1218 90.0001 0.741688 0.160883 0.0578746 0.741676 0.156875 0.0679947 0.741863 0.140356 0.0976379 0.741884 0.154014 0.074246 -5.49861 2.2989 -3.49382 -5.44876 6.83736 -3.13279 -0.0 0.0 -0.0 7.07035 13.597 13.3228 -5.30625 -18.3319 65.6842 1.31629 -33.1049 0.39123 83.7958 -4.28292 -8.80909 -2.72397 28.6805 -3.50339 -0.0 0.0 -0.0 10.633 -16.684 -19.0708 -10.5558 -10.6647 -58.9762 0.38254 10.7305 -0.0359266 30.1881 -0.0605047 3.81156 -0.926784 -28.7455 -6.20089 0.0 0.0 0.0 -14.0597 -1.80535 -5.99649 -29.7697 0.0528172 4.51719 23.5504 26.376 -3.35405 -33.7357 0.0 0.0 -0.0 0.0 -0.0 18.4243 -12.5216 -0.039816 -14.3624 -0.320186 -2.17508 23.1453 -4.56602 3.11531 -12.8552 0.0 0.0 0.0 0.0 0.0 
2871.17 674.681 -486.288 90.0001 -87.1471 90.0001 0.630134 0.165376 0.108652 0.630126 0.158127 0.118956 0.630461 0.131232 0.148098 0.630463 0.152974 0.125513 -6.79443 2.20552 -4.74621 -6.71973 7.53481 -4.32257 -0.0 0.0 -0.0 7.21779 14.0822 13.5436 -7.49313 -18.3356 64.7172 1.0322 -27.081 0.248588 83.4252 -4.23897 -8.79094 -3.11073 28.854 -5.49359 -0.0 0.0 -0.0 10.8323 -16.9062 -19.3762 -9.35642 -8.35384 -59.578 0.567746 15.7085 -0.07832 31.1429 -0.0296196 3.9296 -0.913605 -28.7821 -6.28708 0.0 0.0 0.0 -13.8332 -2.1863 -5.82672 -30.3101 0.0320634 4.59752 20.5584 27.9667 -2.99598 -34.1648 0.0 0.0 -0.0 0.0 -0.0 18.7288 -11.9797 -0.496643 -17.1787 -0.318556 -2.60714 20.7731 -4.34505 2.82922 -11.7051 0.0 0.0 0.0 0.0 0.0 
2885.04 679.907 -480.144 90.0 -86.7182 90.0 0.382706 0.176561 0.276993 0.382735 0.158577 0.287667 0.383562 0.0966801 0.31393 0.383454 0.145046 0.294722 -7.84905 2.92884 -6.97764 -7.70361 10.4122 -6.31548 -0.0 0.0 -0.0 7.08944 15.2903 13.2494 -8.89101 -17.1822 63.812 0.878966 -23.5287 0.183058 84.2797 -4.34049 -8.83238 -3.02017 28.6917 -5.09556 -0.0 0.0 -0.0 10.8353 -16.4482 -19.4606 -8.12895 -5.55411 -61.3231 0.660222 18.1107 -0.105224 31.5605 -0.0154914 3.98107 -0.73455 -28.7954 -7.26213 0.0 0.0 0.0 -11.8088 -4.99698 -5.78523 -34.0452 -0.132011 5.14708 17.6216 28.1576 -2.60119 -36.4348 0.0 0.0 -0.0 0.0 -0.0 16.5969 -10.0338 -1.27148 -15.8352 -0.321983 -2.40103 20.2206 -6.90498 2.75802 -14.3005 0.0 0.0 0.0 0.0 0.0 
2894.76 687.028 -478.212 90.0 -86.0497 90.0 0.250279 0.0719695 0.348763 0.250346 0.0496311 0.352636 0.250685 -0.0240389 0.355299 0.25051 0.0323753 0.354637 -8.36727 3.32588 -6.67717 -8.24238 10.8998 -5.87366 -0.0 0.0 -0.0 6.7551 15.2475 12.6973 -10.7497 -16.2351 63.7501 0.747748 -20.3252 0.134039 83.9743 -4.30413 -8.81774 -3.31745 28.6793 -6.71233 -0.0 0.0 -0.0 10.5408 -15.5793 -19.0905 -5.89667 -4.83263 -62.314 0.802806 21.6869 -0.153777 32.7502 0.0268051 4.12711 -0.397005 -28.9577 -9.15832 0.0 0.0 0.0 -10.9665 -5.04239 -5.68586 -34.6673 -0.162809 5.23754 16.6582 28.3459 -2.47094 -35.9815 0.0 0.0 -0.0 0.0 -0.0 15.3937 -12.0906 -0.589657 -16.9211 -0.319587 -2.56762 19.9635 -4.58536 2.72884 -14.0006 0.0 0.0 0.0 0.0 0.0 
2902.31 687.815 -476.75 90.0 -85.3809 90.0 0.204537 0.0969777 0.337258 0.204597 0.0753206 0.342746 0.205084 0.00285775 0.350913 0.204917 0.0582417 0.346057 -9.21064 3.7214 -7.29411 -9.07737 12.0016 -6.30011 -0.0 0.0 -0.0 6.72724 16.0747 12.603 -11.6196 -15.5117 63.6347 0.631186 -17.3631 0.0963777 83.8677 -4.29146 -8.81259 -3.61131 28.8539 -8.20515 -0.0 0.0 -0.0 10.6034 -13.5556 -19.5105 -4.38257 -3.31658 -63.7138 0.931088 24.7604 -0.20438 33.5738 0.057862 4.22769 -0.183835 -28.9207 -10.3083 0.0 0.0 0.0 -9.4662 -6.10402 -5.43133 -36.2801 -0.247229 5.4705 17.183 28.0436 -2.53875 -35.8505 0.0 0.0 -0.0 0.0 -0.0 14.0158 -11.523 -0.452981 -16.8629 -0.319796 -2.55868 19.3461 -2.24666 2.65913 -14.649 0.0 0.0 0.0 0.0 0.0 
